<?xml version="1.0" standalone="no"?>
<svg xmlns:xlink="http://www.w3.org/1999/xlink" id="wave" style="transform:rotate(180deg); transition: 0.3s" viewBox="0 0 1440 240" version="1.1" xmlns="http://www.w3.org/2000/svg"><defs><linearGradient id="sw-gradient-0" x1="0" x2="0" y1="1" y2="0"><stop stop-color="rgba(255, 249, 234, 1)" offset="0%"/><stop stop-color="rgba(255, 249, 234, 1)" offset="100%"/></linearGradient></defs><path style="transform:translate(0, 0px); opacity:1" fill="url(#sw-gradient-0)" d="M0,24L26.7,20C53.3,16,107,8,160,24C213.3,40,267,80,320,112C373.3,144,427,168,480,156C533.3,144,587,96,640,100C693.3,104,747,160,800,164C853.3,168,907,120,960,88C1013.3,56,1067,40,1120,44C1173.3,48,1227,72,1280,80C1333.3,88,1387,80,1440,72C1493.3,64,1547,56,1600,76C1653.3,96,1707,144,1760,140C1813.3,136,1867,80,1920,80C1973.3,80,2027,136,2080,140C2133.3,144,2187,96,2240,72C2293.3,48,2347,48,2400,60C2453.3,72,2507,96,2560,112C2613.3,128,2667,136,2720,144C2773.3,152,2827,160,2880,156C2933.3,152,2987,136,3040,144C3093.3,152,3147,184,3200,188C3253.3,192,3307,168,3360,136C3413.3,104,3467,64,3520,56C3573.3,48,3627,72,3680,92C3733.3,112,3787,128,3813,136L3840,144L3840,240L3813.3,240C3786.7,240,3733,240,3680,240C3626.7,240,3573,240,3520,240C3466.7,240,3413,240,3360,240C3306.7,240,3253,240,3200,240C3146.7,240,3093,240,3040,240C2986.7,240,2933,240,2880,240C2826.7,240,2773,240,2720,240C2666.7,240,2613,240,2560,240C2506.7,240,2453,240,2400,240C2346.7,240,2293,240,2240,240C2186.7,240,2133,240,2080,240C2026.7,240,1973,240,1920,240C1866.7,240,1813,240,1760,240C1706.7,240,1653,240,1600,240C1546.7,240,1493,240,1440,240C1386.7,240,1333,240,1280,240C1226.7,240,1173,240,1120,240C1066.7,240,1013,240,960,240C906.7,240,853,240,800,240C746.7,240,693,240,640,240C586.7,240,533,240,480,240C426.7,240,373,240,320,240C266.7,240,213,240,160,240C106.7,240,53,240,27,240L0,240Z"/></svg>