<?xml version="1.0" standalone="no"?>
<svg xmlns:xlink="http://www.w3.org/1999/xlink" id="wave" style="transform:rotate(180deg); transition: 0.3s" viewBox="0 0 1440 180" version="1.1" xmlns="http://www.w3.org/2000/svg"><defs><linearGradient id="sw-gradient-0" x1="0" x2="0" y1="1" y2="0"><stop stop-color="rgba(255, 249, 234, 1)" offset="0%"/><stop stop-color="rgba(255, 249, 234, 1)" offset="100%"/></linearGradient></defs><path style="transform:translate(0, 0px); opacity:1" fill="url(#sw-gradient-0)" d="M0,0L30,0C60,0,120,0,180,21C240,42,300,84,360,90C420,96,480,66,540,72C600,78,660,120,720,132C780,144,840,126,900,99C960,72,1020,36,1080,30C1140,24,1200,48,1260,57C1320,66,1380,60,1440,72C1500,84,1560,114,1620,114C1680,114,1740,84,1800,60C1860,36,1920,18,1980,30C2040,42,2100,84,2160,96C2220,108,2280,90,2340,72C2400,54,2460,36,2520,39C2580,42,2640,66,2700,75C2760,84,2820,78,2880,66C2940,54,3000,36,3060,36C3120,36,3180,54,3240,69C3300,84,3360,96,3420,90C3480,84,3540,60,3600,57C3660,54,3720,72,3780,81C3840,90,3900,90,3960,99C4020,108,4080,126,4140,114C4200,102,4260,60,4290,39L4320,18L4320,180L4290,180C4260,180,4200,180,4140,180C4080,180,4020,180,3960,180C3900,180,3840,180,3780,180C3720,180,3660,180,3600,180C3540,180,3480,180,3420,180C3360,180,3300,180,3240,180C3180,180,3120,180,3060,180C3000,180,2940,180,2880,180C2820,180,2760,180,2700,180C2640,180,2580,180,2520,180C2460,180,2400,180,2340,180C2280,180,2220,180,2160,180C2100,180,2040,180,1980,180C1920,180,1860,180,1800,180C1740,180,1680,180,1620,180C1560,180,1500,180,1440,180C1380,180,1320,180,1260,180C1200,180,1140,180,1080,180C1020,180,960,180,900,180C840,180,780,180,720,180C660,180,600,180,540,180C480,180,420,180,360,180C300,180,240,180,180,180C120,180,60,180,30,180L0,180Z"/></svg>